<svg width="25" height="25" viewBox="0 0 25 25" fill="none" xmlns="http://www.w3.org/2000/svg">
<path fill-rule="evenodd" clip-rule="evenodd" d="M19.1667 5.83333H5.83335C4.91669 5.83333 4.17502 6.58333 4.17502 7.5L4.16669 17.5C4.16669 18.4167 4.91669 19.1667 5.83335 19.1667H19.1667C20.0834 19.1667 20.8334 18.4167 20.8334 17.5V7.5C20.8334 6.58333 20.0834 5.83333 19.1667 5.83333ZM18.8334 9.375L12.9417 13.0583C12.675 13.225 12.325 13.225 12.0584 13.0583L6.16669 9.375C5.95835 9.24167 5.83335 9.01667 5.83335 8.775C5.83335 8.21667 6.44169 7.88333 6.91669 8.175L12.5 11.6667L18.0834 8.175C18.5584 7.88333 19.1667 8.21667 19.1667 8.775C19.1667 9.01667 19.0417 9.24167 18.8334 9.375Z" fill="white"/>
</svg>
